#Produced by Art of Illusion 1.7, Sat Jul 03 14:56:29 ICT 2004

mtllib ./obj/cone.mtl

g cone
usemtl ConeMaterial

v 0.54 -0.35 -0
v 0.52907 -0.35 -0.10396
v 0.04024 0.65 -0.00005
v 0.04025 0.65 -0
v 0.49677 -0.35 -0.20337
v 0.04023 0.65 -0.0001
v 0.44451 -0.35 -0.29389
v 0.0402 0.65 -0.00015
v 0.37457 -0.35 -0.37157
v 0.04017 0.65 -0.00019
v 0.29 -0.35 -0.43301
v 0.04012 0.65 -0.00022
v 0.19451 -0.35 -0.47553
v 0.04008 0.65 -0.00024
v 0.09226 -0.35 -0.49726
v 0.04003 0.65 -0.00025
v -0.01226 -0.35 -0.49726
v 0.03997 0.65 -0.00025
v -0.11451 -0.35 -0.47553
v 0.03992 0.65 -0.00024
v -0.21 -0.35 -0.43301
v 0.03988 0.65 -0.00022
v -0.29457 -0.35 -0.37157
v 0.03983 0.65 -0.00019
v -0.36451 -0.35 -0.29389
v 0.0398 0.65 -0.00015
v -0.41677 -0.35 -0.20337
v 0.03977 0.65 -0.0001
v -0.44907 -0.35 -0.10396
v 0.03976 0.65 -0.00005
v -0.46 -0.35 -0
v 0.03975 0.65 -0
v -0.44907 -0.35 0.10396
v 0.03976 0.65 0.00005
v -0.41677 -0.35 0.20337
v 0.03977 0.65 0.0001
v -0.36451 -0.35 0.29389
v 0.0398 0.65 0.00015
v -0.29457 -0.35 0.37157
v 0.03983 0.65 0.00019
v -0.21 -0.35 0.43301
v 0.03988 0.65 0.00022
v -0.11451 -0.35 0.47553
v 0.03992 0.65 0.00024
v -0.01226 -0.35 0.49726
v 0.03997 0.65 0.00025
v 0.09226 -0.35 0.49726
v 0.04003 0.65 0.00025
v 0.19451 -0.35 0.47553
v 0.04008 0.65 0.00024
v 0.29 -0.35 0.43301
v 0.04012 0.65 0.00022
v 0.37457 -0.35 0.37157
v 0.04017 0.65 0.00019
v 0.44451 -0.35 0.29389
v 0.0402 0.65 0.00015
v 0.49677 -0.35 0.20337
v 0.04023 0.65 0.0001
v 0.52907 -0.35 0.10396
v 0.04024 0.65 0.00005
v 0.54 -0.35 -0
v 0.52907 -0.35 0.10396
v 0.04 -0.35 -0
v 0.49677 -0.35 0.20337
v 0.44451 -0.35 0.29389
v 0.37457 -0.35 0.37157
v 0.29 -0.35 0.43301
v 0.19451 -0.35 0.47553
v 0.09226 -0.35 0.49726
v -0.01226 -0.35 0.49726
v -0.11451 -0.35 0.47553
v -0.21 -0.35 0.43301
v -0.29457 -0.35 0.37157
v -0.36451 -0.35 0.29389
v -0.41677 -0.35 0.20337
v -0.44907 -0.35 0.10396
v -0.46 -0.35 -0
v -0.44907 -0.35 -0.10396
v -0.41677 -0.35 -0.20337
v -0.36451 -0.35 -0.29389
v -0.29457 -0.35 -0.37157
v -0.21 -0.35 -0.43301
v -0.11451 -0.35 -0.47553
v -0.01226 -0.35 -0.49726
v 0.09226 -0.35 -0.49726
v 0.19451 -0.35 -0.47553
v 0.29 -0.35 -0.43301
v 0.37457 -0.35 -0.37157
v 0.44451 -0.35 -0.29389
v 0.49677 -0.35 -0.20337
v 0.52907 -0.35 -0.10396
v 0.04025 0.65 -0
v 0.04 0.65 -0
v 0.04024 0.65 0.00005
v 0.04023 0.65 0.0001
v 0.0402 0.65 0.00015
v 0.04017 0.65 0.00019
v 0.04012 0.65 0.00022
v 0.04008 0.65 0.00024
v 0.04003 0.65 0.00025
v 0.03997 0.65 0.00025
v 0.03992 0.65 0.00024
v 0.03988 0.65 0.00022
v 0.03983 0.65 0.00019
v 0.0398 0.65 0.00015
v 0.03977 0.65 0.0001
v 0.03976 0.65 0.00005
v 0.03975 0.65 -0
v 0.03976 0.65 -0.00005
v 0.03977 0.65 -0.0001
v 0.0398 0.65 -0.00015
v 0.03983 0.65 -0.00019
v 0.03988 0.65 -0.00022
v 0.03992 0.65 -0.00024
v 0.03997 0.65 -0.00025
v 0.04003 0.65 -0.00025
v 0.04008 0.65 -0.00024
v 0.04012 0.65 -0.00022
v 0.04017 0.65 -0.00019
v 0.0402 0.65 -0.00015
v 0.04023 0.65 -0.0001
v 0.04024 0.65 -0.00005
vn 0.89452 0.44704 -0
vn 0.87571 0.44703 -0.18246
vn 0.88344 0.44439 -0.14851
vn 0.89452 0.44703 -0
vn 0.80186 0.44674 -0.3968
vn 0.83913 0.44913 -0.30684
vn 0.72101 0.44703 -0.52944
vn 0.75396 0.44599 -0.48233
vn 0.55471 0.44629 -0.70223
vn 0.62114 0.44906 -0.64228
vn 0.43166 0.44696 -0.78351
vn 0.46366 0.44476 -0.7663
vn 0.24304 0.44676 -0.86101
vn 0.31508 0.44778 -0.83679
vn 0.06229 0.44681 -0.89246
vn 0.12105 0.44656 -0.88653
vn -0.12102 0.44686 -0.88638
vn -0.05873 0.44676 -0.89272
vn -0.31868 0.44659 -0.83606
vn -0.25576 0.44723 -0.85707
vn -0.45161 0.44703 -0.77215
vn -0.40889 0.44548 -0.79647
vn -0.64074 0.44628 -0.62473
vn -0.57459 0.44903 -0.68426
vn -0.73889 0.44688 -0.50432
vn -0.71893 0.44477 -0.53416
vn -0.84235 0.44605 -0.30246
vn -0.81635 0.44746 -0.36518
vn -0.87571 0.44703 -0.18246
vn -0.87114 0.44398 -0.20973
vn -0.89295 0.44625 0.05908
vn -0.89291 0.44915 -0.03134
vn -0.87571 0.44703 0.18246
vn -0.88344 0.44439 0.14851
vn -0.80186 0.44674 0.3968
vn -0.83913 0.44913 0.30684
vn -0.72101 0.44703 0.52944
vn -0.75396 0.44599 0.48233
vn -0.55471 0.44629 0.70223
vn -0.62114 0.44906 0.64228
vn -0.43166 0.44696 0.78351
vn -0.46366 0.44476 0.7663
vn -0.24304 0.44676 0.86101
vn -0.31508 0.44778 0.83679
vn -0.06229 0.44681 0.89246
vn -0.12105 0.44656 0.88653
vn 0.12102 0.44686 0.88638
vn 0.05873 0.44676 0.89272
vn 0.31868 0.44659 0.83606
vn 0.25576 0.44723 0.85707
vn 0.45161 0.44703 0.77215
vn 0.40889 0.44548 0.79647
vn 0.64074 0.44628 0.62473
vn 0.57459 0.44903 0.68426
vn 0.73889 0.44688 0.50432
vn 0.71893 0.44477 0.53416
vn 0.84235 0.44605 0.30246
vn 0.81635 0.44746 0.36518
vn 0.87497 0.44704 0.18599
vn 0.878 0.44309 0.18109
vn 0 -1 0
vn 0 -1 0
vn 0 -1 0
vn 0 -1 0
vn 0 -1 0
vn 0 -1 0
vn 0 -1 0
vn 0 -1 0
vn 0 -1 0
vn 0 -1 0
vn 0 -1 0
vn 0 -1 0
vn 0 -1 0
vn 0 -1 0
vn 0 -1 0
vn 0 -1 0
vn 0 -1 0
vn 0 -1 0
vn 0 -1 0
vn 0 -1 0
vn 0 -1 0
vn 0 -1 0
vn 0 -1 0
vn 0 -1 0
vn 0 -1 0
vn 0 -1 0
vn 0 -1 0
vn 0 -1 0
vn 0 -1 0
vn 0 -1 0
vn 0 -1 0
vn 0 1 0
vn 0 1 0
vn 0 1 0
vn 0 1 0
vn 0 1 0
vn 0 1 0
vn 0 1 0
vn 0 1 0
vn 0 1 0
vn 0 1 0
vn 0 1 0
vn 0 1 0
vn 0 1 0
vn 0 1 0
vn 0 1 0
vn 0 1 0
vn 0 1 0
vn 0 1 0
vn 0 1 0
vn 0 1 0
vn 0 1 0
vn 0 1 0
vn 0 1 0
vn 0 1 0
vn 0 1 0
vn 0 1 0
vn 0 1 0
vn 0 1 0
vn 0 1 0
vn 0 1 0
vn 0 1 0
vt 0.75 0
vt 0.78333 0
vt 0.78333 1
vt 0.78333 1
vt 0.75 1
vt 0.75 0
vt 0.78333 0
vt 0.81667 0
vt 0.81667 1
vt 0.81667 1
vt 0.78333 1
vt 0.78333 0
vt 0.81667 0
vt 0.85 0
vt 0.85 1
vt 0.85 1
vt 0.81667 1
vt 0.81667 0
vt 0.85 0
vt 0.88333 0
vt 0.88333 1
vt 0.88333 1
vt 0.85 1
vt 0.85 0
vt 0.88333 0
vt 0.91667 0
vt 0.91667 1
vt 0.91667 1
vt 0.88333 1
vt 0.88333 0
vt 0.91667 0
vt 0.95 0
vt 0.95 1
vt 0.95 1
vt 0.91667 1
vt 0.91667 0
vt 0.95 0
vt 0.98333 0
vt 0.98333 1
vt 0.98333 1
vt 0.95 1
vt 0.95 0
vt 0.98333 0
vt 1.01667 0
vt 1.01667 1
vt 1.01667 1
vt 0.98333 1
vt 0.98333 0
vt 0.01667 0
vt 0.05 0
vt 0.05 1
vt 0.05 1
vt 0.01667 1
vt 0.01667 0
vt 0.05 0
vt 0.08333 0
vt 0.08333 1
vt 0.08333 1
vt 0.05 1
vt 0.05 0
vt 0.08333 0
vt 0.11667 0
vt 0.11667 1
vt 0.11667 1
vt 0.08333 1
vt 0.08333 0
vt 0.11667 0
vt 0.15 0
vt 0.15 1
vt 0.15 1
vt 0.11667 1
vt 0.11667 0
vt 0.15 0
vt 0.18333 0
vt 0.18333 1
vt 0.18333 1
vt 0.15 1
vt 0.15 0
vt 0.18333 0
vt 0.21667 0
vt 0.21667 1
vt 0.21667 1
vt 0.18333 1
vt 0.18333 0
vt 0.21667 0
vt 0.25 0
vt 0.25 1
vt 0.25 1
vt 0.21667 1
vt 0.21667 0
vt 0.25 0
vt 0.28333 -0
vt 0.28333 1
vt 0.28333 1
vt 0.25 1
vt 0.25 0
vt 0.28333 -0
vt 0.31667 -0
vt 0.31667 1
vt 0.31667 1
vt 0.28333 1
vt 0.28333 -0
vt 0.31667 -0
vt 0.35 -0
vt 0.35 1
vt 0.35 1
vt 0.31667 1
vt 0.31667 -0
vt 0.35 -0
vt 0.38333 -0
vt 0.38333 1
vt 0.38333 1
vt 0.35 1
vt 0.35 -0
vt 0.38333 -0
vt 0.41667 -0
vt 0.41667 1
vt 0.41667 1
vt 0.38333 1
vt 0.38333 -0
vt 0.41667 -0
vt 0.45 -0
vt 0.45 1
vt 0.45 1
vt 0.41667 1
vt 0.41667 -0
vt 0.45 -0
vt 0.48333 -0
vt 0.48333 1
vt 0.48333 1
vt 0.45 1
vt 0.45 -0
vt 0.48333 -0
vt 0.51667 -0
vt 0.51667 1
vt 0.51667 1
vt 0.48333 1
vt 0.48333 -0
vt 0.51667 -0
vt 0.55 -0
vt 0.55 1
vt 0.55 1
vt 0.51667 1
vt 0.51667 -0
vt 0.55 -0
vt 0.58333 -0
vt 0.58333 1
vt 0.58333 1
vt 0.55 1
vt 0.55 -0
vt 0.58333 -0
vt 0.61667 0
vt 0.61667 1
vt 0.61667 1
vt 0.58333 1
vt 0.58333 -0
vt 0.61667 0
vt 0.65 0
vt 0.65 1
vt 0.65 1
vt 0.61667 1
vt 0.61667 0
vt 0.65 0
vt 0.68333 0
vt 0.68333 1
vt 0.68333 1
vt 0.65 1
vt 0.65 0
vt 0.68333 0
vt 0.71667 -0
vt 0.71667 1
vt 0.71667 1
vt 0.68333 1
vt 0.68333 0
vt 0.75 0
vt 0.75 1
vt 0.71667 1
vt 0.71667 1
vt 0.71667 -0
vt 0.75 0
vt 1 0.5
vt 0.98907 0.60396
vt 0.5 0.5
vt 0.95677 0.70337
vt 0.5 0.5
vt 0.98907 0.60396
vt 0.90451 0.79389
vt 0.5 0.5
vt 0.95677 0.70337
vt 0.83457 0.87157
vt 0.5 0.5
vt 0.90451 0.79389
vt 0.75 0.93301
vt 0.5 0.5
vt 0.83457 0.87157
vt 0.65451 0.97553
vt 0.5 0.5
vt 0.75 0.93301
vt 0.55226 0.99726
vt 0.5 0.5
vt 0.65451 0.97553
vt 0.44774 0.99726
vt 0.5 0.5
vt 0.55226 0.99726
vt 0.34549 0.97553
vt 0.5 0.5
vt 0.44774 0.99726
vt 0.25 0.93301
vt 0.5 0.5
vt 0.34549 0.97553
vt 0.16543 0.87157
vt 0.5 0.5
vt 0.25 0.93301
vt 0.09549 0.79389
vt 0.5 0.5
vt 0.16543 0.87157
vt 0.04323 0.70337
vt 0.5 0.5
vt 0.09549 0.79389
vt 0.01093 0.60396
vt 0.5 0.5
vt 0.04323 0.70337
vt 0 0.5
vt 0.5 0.5
vt 0.01093 0.60396
vt 0.01093 0.39604
vt 0.5 0.5
vt 0 0.5
vt 0.04323 0.29663
vt 0.5 0.5
vt 0.01093 0.39604
vt 0.09549 0.20611
vt 0.5 0.5
vt 0.04323 0.29663
vt 0.16543 0.12843
vt 0.5 0.5
vt 0.09549 0.20611
vt 0.25 0.06699
vt 0.5 0.5
vt 0.16543 0.12843
vt 0.34549 0.02447
vt 0.5 0.5
vt 0.25 0.06699
vt 0.44774 0.00274
vt 0.5 0.5
vt 0.34549 0.02447
vt 0.55226 0.00274
vt 0.5 0.5
vt 0.44774 0.00274
vt 0.65451 0.02447
vt 0.5 0.5
vt 0.55226 0.00274
vt 0.75 0.06699
vt 0.5 0.5
vt 0.65451 0.02447
vt 0.83457 0.12843
vt 0.5 0.5
vt 0.75 0.06699
vt 0.90451 0.20611
vt 0.5 0.5
vt 0.83457 0.12843
vt 0.95677 0.29663
vt 0.5 0.5
vt 0.90451 0.20611
vt 0.98907 0.39604
vt 0.5 0.5
vt 0.95677 0.29663
vt 1 0.5
vt 0.5 0.5
vt 0.98907 0.39604
vt 1 0.5
vt 0.5 0.5
vt 0.98907 0.39604
vt 0.95677 0.29663
vt 0.98907 0.39604
vt 0.5 0.5
vt 0.90451 0.20611
vt 0.95677 0.29663
vt 0.5 0.5
vt 0.83457 0.12843
vt 0.90451 0.20611
vt 0.5 0.5
vt 0.75 0.06699
vt 0.83457 0.12843
vt 0.5 0.5
vt 0.65451 0.02447
vt 0.75 0.06699
vt 0.5 0.5
vt 0.55226 0.00274
vt 0.65451 0.02447
vt 0.5 0.5
vt 0.44774 0.00274
vt 0.55226 0.00274
vt 0.5 0.5
vt 0.34549 0.02447
vt 0.44774 0.00274
vt 0.5 0.5
vt 0.25 0.06699
vt 0.34549 0.02447
vt 0.5 0.5
vt 0.16543 0.12843
vt 0.25 0.06699
vt 0.5 0.5
vt 0.09549 0.20611
vt 0.16543 0.12843
vt 0.5 0.5
vt 0.04323 0.29663
vt 0.09549 0.20611
vt 0.5 0.5
vt 0.01093 0.39604
vt 0.04323 0.29663
vt 0.5 0.5
vt 0 0.5
vt 0.01093 0.39604
vt 0.5 0.5
vt 0.01093 0.60396
vt 0 0.5
vt 0.5 0.5
vt 0.04323 0.70337
vt 0.01093 0.60396
vt 0.5 0.5
vt 0.09549 0.79389
vt 0.04323 0.70337
vt 0.5 0.5
vt 0.16543 0.87157
vt 0.09549 0.79389
vt 0.5 0.5
vt 0.25 0.93301
vt 0.16543 0.87157
vt 0.5 0.5
vt 0.34549 0.97553
vt 0.25 0.93301
vt 0.5 0.5
vt 0.44774 0.99726
vt 0.34549 0.97553
vt 0.5 0.5
vt 0.55226 0.99726
vt 0.44774 0.99726
vt 0.5 0.5
vt 0.65451 0.97553
vt 0.55226 0.99726
vt 0.5 0.5
vt 0.75 0.93301
vt 0.65451 0.97553
vt 0.5 0.5
vt 0.83457 0.87157
vt 0.75 0.93301
vt 0.5 0.5
vt 0.90451 0.79389
vt 0.83457 0.87157
vt 0.5 0.5
vt 0.95677 0.70337
vt 0.90451 0.79389
vt 0.5 0.5
vt 0.98907 0.60396
vt 0.95677 0.70337
vt 0.5 0.5
vt 0.98907 0.60396
vt 0.5 0.5
vt 1 0.5
f 1/1/1 2/2/2 3/3/3
f 3/4/3 4/5/4 1/6/1
f 2/7/2 5/8/5 6/9/6
f 6/10/6 3/11/3 2/12/2
f 5/13/5 7/14/7 8/15/8
f 8/16/8 6/17/6 5/18/5
f 7/19/7 9/20/9 10/21/10
f 10/22/10 8/23/8 7/24/7
f 9/25/9 11/26/11 12/27/12
f 12/28/12 10/29/10 9/30/9
f 11/31/11 13/32/13 14/33/14
f 14/34/14 12/35/12 11/36/11
f 13/37/13 15/38/15 16/39/16
f 16/40/16 14/41/14 13/42/13
f 15/43/15 17/44/17 18/45/18
f 18/46/18 16/47/16 15/48/15
f 17/49/17 19/50/19 20/51/20
f 20/52/20 18/53/18 17/54/17
f 19/55/19 21/56/21 22/57/22
f 22/58/22 20/59/20 19/60/19
f 21/61/21 23/62/23 24/63/24
f 24/64/24 22/65/22 21/66/21
f 23/67/23 25/68/25 26/69/26
f 26/70/26 24/71/24 23/72/23
f 25/73/25 27/74/27 28/75/28
f 28/76/28 26/77/26 25/78/25
f 27/79/27 29/80/29 30/81/30
f 30/82/30 28/83/28 27/84/27
f 29/85/29 31/86/31 32/87/32
f 32/88/32 30/89/30 29/90/29
f 31/91/31 33/92/33 34/93/34
f 34/94/34 32/95/32 31/96/31
f 33/97/33 35/98/35 36/99/36
f 36/100/36 34/101/34 33/102/33
f 35/103/35 37/104/37 38/105/38
f 38/106/38 36/107/36 35/108/35
f 37/109/37 39/110/39 40/111/40
f 40/112/40 38/113/38 37/114/37
f 39/115/39 41/116/41 42/117/42
f 42/118/42 40/119/40 39/120/39
f 41/121/41 43/122/43 44/123/44
f 44/124/44 42/125/42 41/126/41
f 43/127/43 45/128/45 46/129/46
f 46/130/46 44/131/44 43/132/43
f 45/133/45 47/134/47 48/135/48
f 48/136/48 46/137/46 45/138/45
f 47/139/47 49/140/49 50/141/50
f 50/142/50 48/143/48 47/144/47
f 49/145/49 51/146/51 52/147/52
f 52/148/52 50/149/50 49/150/49
f 51/151/51 53/152/53 54/153/54
f 54/154/54 52/155/52 51/156/51
f 53/157/53 55/158/55 56/159/56
f 56/160/56 54/161/54 53/162/53
f 55/163/55 57/164/57 58/165/58
f 58/166/58 56/167/56 55/168/55
f 57/169/57 59/170/59 60/171/60
f 60/172/60 58/173/58 57/174/57
f 1/175/1 4/176/4 60/177/60
f 60/178/60 59/179/59 1/180/1
f 61/181/61 62/182/62 63/183/63
f 64/184/64 63/185/63 62/186/62
f 65/187/65 63/188/63 64/189/64
f 66/190/66 63/191/63 65/192/65
f 67/193/67 63/194/63 66/195/66
f 68/196/68 63/197/63 67/198/67
f 69/199/69 63/200/63 68/201/68
f 70/202/70 63/203/63 69/204/69
f 71/205/71 63/206/63 70/207/70
f 72/208/72 63/209/63 71/210/71
f 73/211/73 63/212/63 72/213/72
f 74/214/74 63/215/63 73/216/73
f 75/217/75 63/218/63 74/219/74
f 76/220/76 63/221/63 75/222/75
f 77/223/77 63/224/63 76/225/76
f 78/226/78 63/227/63 77/228/77
f 79/229/79 63/230/63 78/231/78
f 80/232/80 63/233/63 79/234/79
f 81/235/81 63/236/63 80/237/80
f 82/238/82 63/239/63 81/240/81
f 83/241/83 63/242/63 82/243/82
f 84/244/84 63/245/63 83/246/83
f 85/247/85 63/248/63 84/249/84
f 86/250/86 63/251/63 85/252/85
f 87/253/87 63/254/63 86/255/86
f 88/256/88 63/257/63 87/258/87
f 89/259/89 63/260/63 88/261/88
f 90/262/90 63/263/63 89/264/89
f 91/265/91 63/266/63 90/267/90
f 61/268/61 63/269/63 91/270/91
f 92/271/92 93/272/93 94/273/94
f 95/274/95 94/275/94 93/276/93
f 96/277/96 95/278/95 93/279/93
f 97/280/97 96/281/96 93/282/93
f 98/283/98 97/284/97 93/285/93
f 99/286/99 98/287/98 93/288/93
f 100/289/100 99/290/99 93/291/93
f 101/292/101 100/293/100 93/294/93
f 102/295/102 101/296/101 93/297/93
f 103/298/103 102/299/102 93/300/93
f 104/301/104 103/302/103 93/303/93
f 105/304/105 104/305/104 93/306/93
f 106/307/106 105/308/105 93/309/93
f 107/310/107 106/311/106 93/312/93
f 108/313/108 107/314/107 93/315/93
f 109/316/109 108/317/108 93/318/93
f 110/319/110 109/320/109 93/321/93
f 111/322/111 110/323/110 93/324/93
f 112/325/112 111/326/111 93/327/93
f 113/328/113 112/329/112 93/330/93
f 114/331/114 113/332/113 93/333/93
f 115/334/115 114/335/114 93/336/93
f 116/337/116 115/338/115 93/339/93
f 117/340/117 116/341/116 93/342/93
f 118/343/118 117/344/117 93/345/93
f 119/346/119 118/347/118 93/348/93
f 120/349/120 119/350/119 93/351/93
f 121/352/121 120/353/120 93/354/93
f 122/355/122 121/356/121 93/357/93
f 122/358/122 93/359/93 92/360/92
